/* XPM */
static char *collectible[] = {
/* columns rows colors chars-per-pixel */
"112 48 68 1 ",
"  c #36315D",
". c #0E7854",
"X c #1F6C73",
"o c #267D60",
"O c #961D47",
"+ c #AA1D4E",
"@ c #BE285C",
"# c #D22863",
"$ c #EB2D6F",
"% c #FF586C",
"& c #E6477E",
"* c #349669",
"= c #16A575",
"- c #25A077",
"; c #FFC971",
": c #5437BA",
"> c #375087",
", c #3B558C",
"< c #2951A5",
"1 c #4665A5",
"2 c #5471AF",
"3 c #456CBE",
"4 c #4D71BE",
"5 c #5372B4",
"6 c #5D7AB9",
"7 c #4A45C8",
"8 c #6A66DC",
"9 c #7873F0",
"0 c #D0208E",
"q c #FF3E8B",
"w c #CE5E85",
"e c #FF5D96",
"r c #FF7A8F",
"t c #EB7A91",
"y c #AE72D4",
"u c #9968E2",
"i c #FF7BC7",
"p c #ED7ED7",
"a c #2BA9B4",
"s c #47CDA0",
"d c #6082C8",
"f c #7997D6",
"g c #24D2D2",
"h c #7FDFDF",
"j c #4AFFC2",
"k c #7BC2FF",
"l c #FF808F",
"z c #FF8EA1",
"x c #FFA7B9",
"c c #FFADBB",
"v c #A8E08B",
"b c #93D4B5",
"n c #FFD58E",
"m c #FFE5BA",
"M c #BE9BFF",
"N c #FFACEE",
"B c #9BFFDD",
"V c #FFC9D2",
"C c #FFCED8",
"Z c #DCC9FF",
"A c #EACBFA",
"S c #C9FFED",
"D c #FFFFE7",
"F c #F0F6E8",
"G c #F7E6FF",
"H c #FFE2F9",
"J c #FFF5F7",
"K c #72751B",
/* pixels */
"KKKKKKKKKKKKKKKKKKKKKKKKKKKKKKKKKKKKKKKKKKKKKKKKKKKKKKKKKKKKKKKKKKKKKKKKKKKKKKKKKKKKKKKKKKKKKKKKKKKKKKKK<<<<KKKK",
"KKKKKKKKKKKKKKKKKKKKKKoooKKKKKKKKKKKKKKKKKKKKKKKKKKKKKfffffKKKKKKKKKKKfffffKKKKKKKKKKKfffffKKKKKKKKKKKK<BhBB<KKK",
"KKKKKKKKKKKKKKKKKKKKKovvvoKKKKKKKKv*v***KKKKKKKKKKKKKfhhhhhfKKKKKKKKKfhhhhhfKKKKKKKKKfhhhhhfKKKKKKKKBB<hffffB<KK",
"KKKKK     KKKKKKKKK****s****KKKKKv**KKKK**K+++KKKKKKfDhhhhhDfKKKKKKKfDhhhhhDfKKKKKKKfDhhhhhDfKKKKKKKKBBhhf3 3<KK",
"KKKK dd  f KKKKKKK*vsvv*vvsv*KKKK*ooo*KKKKo%%l+KKKKKfBDDDDDBfKKKKKKKfBDDDDDBfKKKKKKKfBDDDDDBfKKKKKKK<Bh5ff K KKK",
"KKK 1d ,1 f KKKKKK*sssooosss*KKK*oKKKooKK+$%%%$+KKKKfSBBBBBSfKKKKKKKfSBBBBBSfKKKKKKKfSBBBBBSfKKKKKKK<h5ff3 KKKKK",
"KK 1dfh  hhf KKKKKKooo$$$oooKKKK*oKKKKoKK+$$%$$+KKKKfSZZZZZSfKKKKKKKfSCCCCCSfKKKKKKKfSNNNNNSfKKKKKK<Bh5ff3 KKKKK",
"KK ddffffhhf KKKKK#%%%$$%%%%#KKKoKKKKKo++++$$$$+KKKKfuZZZZZufKKKKKKKfrCCCCCrfKKKKKKKfyNNNNNyfKKKKKK<h5ff3 KKKKKK",
"KK 1dffffffd KKKKK#%$%%%%%$%#KKKKKKKKKo$%%%+$$+KKKKKfMuuuuuJfKKKKKKKfxrrrrrJfKKKKKKKfpyyyyyHfKKKKKK<h5fffKKKKKKK",
"KK 1ddffffhd KKKKK#$%%%%%%%$#KKKKKKKK+$$%ll%++KKKKKKfMMMMMMJfKKKKKKKfxxxxxxJfKKKKKKKfppppppHfKKKKKK<hf333fKKKKKK",
"KK 11dddddd1 KKKKK+$%$%%%$%$+KKKKKKKK+$$%ll%+KKKKKKKfMMMMMMMfKKKKKKKfxxxxxxxfKKKKKKKfpppppppfKKKKKK<h  KK3KKKKKK",
"KKK 11dddd1 KKKKKKK+$$$%$$$+KKKKKKKKK+$$$%%%+KKKKKKKfMMMMMMJfKKKKKKKfxxxxxxJfKKKKKKKfppppppHfKKKKK<B KKKKKKKKKKK",
"KKKK 11111 KKKKKKKKK+$$$$$+KKKKKKKKKK+$$$$$%+KKKKKKKfMuuuuuMfKKKKKKKfxtttttxfKKKKKKKfpqqqqqpfKKKKK<D KKKKKKKKKKK",
"KKKKK     KKKKKKKKKKK+$$$+KKKKKKKKKKKK+$$$$+KKKKKKKKKfuuuuufKKKKKKKKKftttttfKKKKKKKKKfqqqqqfKKKKKK< KKKKKKKKKKKK",
"KKKKKKKKKKKKKKKKKKKKKK+++KKKKKKKKKKKKKK++++KKKKKKKKKKKfffffKKKKKKKKKKKfffffKKKKKKKKKKKfffffKKKKKKK<KKKKKKKKKKKKK",
"KKKKKKKKKKKKKKKKKKKKKKKKKKKKKKKKKKKKKKKKKKKKKKKKKKKKKKKKKKKKKKKKKKKKKKKKKKKKKKKKKKKKKKKKKKKKKKKKKKKKKKKKKKKKKKKK",
"KKKKKKKKKKKKKKKKKKKKKKKKKKKKKKKKKKKKKKKKKKKKKKKKKKKKKKKKKKKKKKKKKKKKKKKKKKKKKKKKKKKKKKKKKKKKKKKKKKKKKKKKKKKKKKKK",
"KKKKKKKKKKKKKKKKKKKKKKKKKKKKKKKKKKKKKKKshsKKKKKKKKKKKKKwzwKKKKKKKKKKKKKKKKKKKKKKKKKKKKKKKKKKKKKKKKKKKKKKKKKKKKKK",
"KKKKK44444KKKKKKKKKKK44444KKKKKKKKKKKKsSSSsKKKKKKKKKKKwVVVwKKKKKKKKKKKKKKKKKKKKKKKKKKKKKKKKKKKKKKKKKKKKKKKKKKKKK",
"KKK44DDBDD44KKKKKKK44DDGDD44KKKKKKKKKKsBsBsKKKKKKKKKKKwczcwKKKKKKKKKKKKKKKKKKKKKKKKKKKKKKKKKKKKKKKKKKKKKKKKKKKKK",
"KK4DfBBhhhfD4KKKKK4DfGGAAAfD4KKKKKKKKsSBBBSsKKKKKKKKKwVcccVwKKKKKKKKKKKKKKK2>KKKKKKKKKKKKKKaXKKKKKKKKKKKKKKhfKKK",
"K4DBfBBhhhfBh4KKK4DGfGGAAAfGA4KKKKsssSBBBBBSsssKKKwwwVcccccVwwwKKKKKKKKKK22h>KKKKKKKKKKKKaaFXKKKKKKKKKKKKhhDfKKK",
"K4BhfBBhhhfBh4KKK4GAfGGAAAfGA4KKKsSSSBBsBsBBSSSsKwVVVcczczccVVVwKKKKKKK22hh>KKKKKKKKKKKaaFFXKKKKKKKKKKKhhDDfKKKK",
"K4BhhfBhhfBhh4KKK4GAAfGAAfGAA4KKKhBsBBsssssBBsBhKzczcczzzzzcczczKKKKK22hh2f>KKKKKKKKKaaFFabXKKKKKKKKKhhDDhBfKKKK",
"KK4BhfBhhfBh4KKKKK4GAfGAAfGA4KKKKsBBBBBsssBBBBBsKwccccczzzcccccwKKK22hh2hf>KKKKKKKKaaFFaFbXKKKKKKKKhhDDhDBfKKKKK",
"KK4BhhfBfBhh4KKKKK4GAAfGfGAA4KKKKKsBBsBBsBBsBBsKKKwcczcczcczccwKKK2hh2hh2f>KKKKKKKaFFaFFabXKKKKKKKhDDhDDhBfKKKKK",
"KKK4BhfBfBh4KKKKKKK4GAfGfGA4KKKKKKKsBBBBBBBBBsKKKKKwcccccccccwKKK2hhhh2hf>KKKKKKKaFFFFaFbXKKKKKKKhDDDDhDBfKKKKKK",
"KKKK4fffff4KKKKKKKKK4fffff4KKKKKKKKsBBBBsBBBBsKKKKKwccccwccccwKKK2hffff2f>KKKKKKKaFbbbbabXKKKKKKKhDBBBBhBfKKKKKK",
"KKK4Bhhhhhh4KKKKKKK4GAAAAAA4KKKKKKKsBsBsKsBsBsKKKKKwczcwKwczcwKKK2hfhff>>KKKKKKKKaFbFbbXXKKKKKKKKhDBDBBffKKKKKKK",
"KKKK4444444KKKKKKKKK4444444KKKKKKKKsBBBsKsBBBsKKKKKwcccwKwcccwKKK2hhfhf>KKKKKKKKKaFFbFbXKKKKKKKKKhDDBDBfKKKKKKKK",
"KKKKKKKKKKKKKKKKKKKKKKKKKKKKKKKKKKKKshsKKKshsKKKKKKKwzwKKKwzwKKKKK>>>>>KKKKKKKKKKKXXXXXKKKKKKKKKKKfffffKKKKKKKKK",
"KKKKKKKKKKKKKKKKKKKKKKKKKKKKKKKKKKKKKKKKKKKKKKKKKKKKKKKKKKKKKKKKKKKKKKKKKKKKKKKKKKKKKKKKKKKKKKKKKKKKKKKKKKKKKKKK",
"KKKKKKKKKKKKKKKKKKKKKKKKKKKKKKKKKKKKKKKKKKKKKKKKKKKKKKKKKKKKKKKKKKKKKKKKKKKKKKKKKKKKKKKKKKKKKKKKKKKKKKKKKKKKKKKK",
"KKKKKO@KKOOKKKKKKKKKKKKKKKKKKKKKKKKKKKKKKKKKKKKKKKKKKKKKKKKKKKKKKKKKKKKKKKKKKKKKKKKKKKKKKKKKKKKKKKKKKKKKKKKKKKKK",
"KKKKO&&&0&&OKKKKKKKK:::KKKKKKKKKKKKKfffKKKfffKKKKKKKKKKKKKKKKKKKKKKKKKKKKKKKKKKKKKKKKKKKKKKKKKKKKKKKKKKKKKKKKKKK",
"KKKOO0&i0i&@KKKKKKK:8kk:KKKK::KKKKKfDDDfKfmDDfKKKKKKKKKKKKKKKKKKKKKKKKKKKKKKKKKKKKKKKKKKKKKKKKKKKKKKKKKKKKKKKKKK",
"KKO&ii@0e0ii&OKKKK:899kk:.K:k9:KKKfhmDDDfmDDDDfKKKKKKKKKKKKKKKKKKKKKKKKKKKKKKKKKKKKKKKKKKKKKKKKKKKKKKKKKKKKKKKKK",
"KKO0&@i0&&@e&i@KKK:889Dk:g:k988 KKKfhmmfmmmDDhfKKKKKKKKKKKKKKKKKKKKKKKKKKKKKKKKKKKKKKKKKKKKKKKKKKKKKKKKKKKKKKKKK",
"KO&i0&ee00&e&e&OKK. 88D:g=:D988 KK.KfhhfgghhhfKKKKKKKKKKKKKKKKKKKKKKKKKKKKKKKKKKKKKKKKKKKKKKKKKKKKKKKKKKKKKKKKKK",
"KO&&&@&&&&00i&OKK.gg 8DD7:D9888:K.g.ffgn;ffffK.KKKKKKKKKKKKKKKKKKKKKKKKKKKKKKKKKKKKKKKKKKKKKKKKKKKKKKKKKKKKKKKKK",
"KKO00i0000ie0Oj-K.=:::kkDD8888:K.g=fDmm6gmmDf.g.KKKKKKKKKKKKKKKKKKKKKKKKKKKKKKKKKKKKKKKKKKKKKKKKKKKKKKKKKKKKKKKK",
"KKO&eeiiiie&&&s.KK:kkkDD8::   .KK.fDDDmm6mDDD6=.KKKKKKKKKKKKKKKKKKKKKKKKKKKKKKKKKKKKKKKKKKKKKKKKKKKKKKKKKKKKKKKK",
"K-.O&&&O&&&OOj.KK:89kDDk8:ggg=g.K6hDDDDh6DDDh6.KKKKKKKKKKKKKKKKKKKKKKKKKKKKKKKKKKKKKKKKKKKKKKKKKKKKKKKKKKKKKKKKK",
"-Bj.OO&.O@@.B.KKK:8899988 g==..KKK6hhh66hhhh6=.KKKKKKKKKKKKKKKKKKKKKKKKKKKKKKKKKKKKKKKKKKKKKKKKKKKKKKKKKKKKKKKKK",
"K.ss.....Bsss.KKKK 88888 g.=.KKKKK.666gg6666..KKKKKKKKKKKKKKKKKKKKKKKKKKKKKKKKKKKKKKKKKKKKKKKKKKKKKKKKKKKKKKKKKK",
"KK....ssB....KKKKKK     ..K.KKKKKK.g======.KKKKKKKKKKKKKKKKKKKKKKKKKKKKKKKKKKKKKKKKKKKKKKKKKKKKKKKKKKKKKKKKKKKKK",
"KKKKKK...KKKKKKKKKKKKKKKKKKKKKKKKKK.......KKKKKKKKKKKKKKKKKKKKKKKKKKKKKKKKKKKKKKKKKKKKKKKKKKKKKKKKKKKKKKKKKKKKKK",
"KKKKKKKKKKKKKKKKKKKKKKKKKKKKKKKKKKKKKKKKKKKKKKKKKKKKKKKKKKKKKKKKKKKKKKKKKKKKKKKKKKKKKKKKKKKKKKKKKKKKKKKKKKKKKKKK"
};
