/* XPM */
static char *player[] = {
/* columns rows colors chars-per-pixel */
"35 32 26 1 ",
"  c #1F1A1A",
". c #2D0704",
"X c #22021D",
"o c #431A0B",
"O c #5E1E13",
"+ c #621914",
"@ c #672020",
"# c #7B4E16",
"$ c #425C6B",
"% c #8F3838",
"& c #8D6534",
"* c #946835",
"= c #B78C61",
"- c #607581",
"; c #6F828D",
": c #7F909A",
"> c #232323",
", c #BE9B97",
"< c #B19E9A",
"1 c #9BADB7",
"2 c #C9C0BE",
"3 c #232323",
"4 c #C5D0D5",
"5 c #F2DAD2",
"6 c #FDF7F6",
"7 c white",
/* pixels */
"33>>>>>>>>33333333>>>>>>>>33333333>",
"33>>>>>>>>33333333>>>>>>>>33333333>",
"33>>>>>>>>33333333>>>>>>>>33333333>",
"33>>>>>>>>33333333>>>>>>>>33333333>",
"33>>>>>>>>33333333>>>>>>>>33333333>",
"33>>>>>>>>33333333>>>>>>>>33333333>",
"33>>>>>>>>33333333>>>>>>>>33333333>",
"33>>>>>>>>33333333>   >>>>33333333>",
">>33333333>>>>>>>> $-  333>>>>>>>>3",
">>33333333>>>>>>> 4-$ - 33>>>>>>>>3",
">>33333333>>>>>> 144-1 - 3>>>>>>>>3",
">>33333333>>>>> ;144:1$- 3>>>>>>>>3",
">>33333333>>>>> ;;11:$ - 3>>>>>>>>3",
">>33333333>>>   -;;$$$ - 3>>>>>>>>3",
">>33333333>>  2 $-$..$ $$ >X>>>>>>3",
">>33333333>  2 $$$ 7+55 $ XOX>>>>>3",
"33>>>>>>>>3 2 <   ,55555  63OX3333>",
"33>>>>>>>>33 < &# --1-1  633OX3333>",
"33>>>>>>>>333 &# @ --1 @6>33OX3333>",
"33>>>>>>>>3333  @@ o@@%  >3OX33333>",
"33>>>>>>>>3333 -1 o@%%@ - OX333333>",
"33>>>>>>>>3333 -- ##**= -OX3333333>",
"33>>>>>>>>33333  $$-oo1   33333333>",
"33>>>>>>>>3333333 oo  @ >>33333333>",
">>33333333>>>>>>> o 3 @ 33>>>>>>>>3",
">>33333333>>>>>>>>33333333>>>>>>>>3",
">>33333333>>>>>>>>33333333>>>>>>>>3",
">>33333333>>>>>>>>33333333>>>>>>>>3",
">>33333333>>>>>>>>33333333>>>>>>>>3",
">>33333333>>>>>>>>33333333>>>>>>>>3",
">>33333333>>>>>>>>33333333>>>>>>>>3",
">>33333333>>>>>>>>33333333>>>>>>>>3"
};